<svg width="10" height="9" viewBox="0 0 10 9" fill="none" xmlns="http://www.w3.org/2000/svg">
<path d="M0 1.17702C0 0.864853 0.131696 0.565474 0.366117 0.34474C0.600537 0.124007 0.918479 0 1.25 0L8.75 0C9.08152 0 9.39946 0.124007 9.63388 0.34474C9.8683 0.565474 10 0.864853 10 1.17702V5.88509C10 6.19725 9.8683 6.49663 9.63388 6.71736C9.39946 6.9381 9.08152 7.0621 8.75 7.0621H2.75875C2.593 7.06214 2.43406 7.12416 2.31688 7.23454L0.53375 8.91355C0.490082 8.95477 0.434407 8.98287 0.373773 8.99429C0.313138 9.0057 0.25027 8.99993 0.193125 8.97768C0.135979 8.95544 0.0871262 8.91774 0.0527483 8.86934C0.0183704 8.82094 1.31343e-05 8.76403 0 8.70581L0 1.17702ZM3.125 3.53105C3.125 3.37497 3.05915 3.22528 2.94194 3.11491C2.82473 3.00455 2.66576 2.94254 2.5 2.94254C2.33424 2.94254 2.17527 3.00455 2.05806 3.11491C1.94085 3.22528 1.875 3.37497 1.875 3.53105C1.875 3.68713 1.94085 3.83682 2.05806 3.94719C2.17527 4.05756 2.33424 4.11956 2.5 4.11956C2.66576 4.11956 2.82473 4.05756 2.94194 3.94719C3.05915 3.83682 3.125 3.68713 3.125 3.53105ZM5.625 3.53105C5.625 3.37497 5.55915 3.22528 5.44194 3.11491C5.32473 3.00455 5.16576 2.94254 5 2.94254C4.83424 2.94254 4.67527 3.00455 4.55806 3.11491C4.44085 3.22528 4.375 3.37497 4.375 3.53105C4.375 3.68713 4.44085 3.83682 4.55806 3.94719C4.67527 4.05756 4.83424 4.11956 5 4.11956C5.16576 4.11956 5.32473 4.05756 5.44194 3.94719C5.55915 3.83682 5.625 3.68713 5.625 3.53105ZM7.5 4.11956C7.66576 4.11956 7.82473 4.05756 7.94194 3.94719C8.05915 3.83682 8.125 3.68713 8.125 3.53105C8.125 3.37497 8.05915 3.22528 7.94194 3.11491C7.82473 3.00455 7.66576 2.94254 7.5 2.94254C7.33424 2.94254 7.17527 3.00455 7.05806 3.11491C6.94085 3.22528 6.875 3.37497 6.875 3.53105C6.875 3.68713 6.94085 3.83682 7.05806 3.94719C7.17527 4.05756 7.33424 4.11956 7.5 4.11956Z" fill="black"/>
</svg>
