<svg width="140" height="141" viewBox="0 0 140 141" fill="none" xmlns="http://www.w3.org/2000/svg">
<rect x="82.9675" y="89.8046" width="11.3805" height="19.5265" fill="#3C87AF"/>
<rect x="68.8325" y="94.4767" width="11.3805" height="18.0889" fill="#7CC8F1"/>
<rect x="54.0977" y="101.065" width="11.3805" height="8.26581" fill="#7CC8F1"/>
<path d="M75.0016 44.1628C60.0513 35.873 45.7319 34.6791 40.4409 35.1183C79.1345 45.1211 71.7671 61.1736 68.4728 72.4941C65.8373 81.5506 48.0878 99.5876 39.5425 107.474C60.806 89.3252 84.7648 72.7936 88.4186 76.0281C91.3415 78.6156 88.4385 85.971 86.6216 89.3252C88.3467 88.0315 94.3683 80.8398 97.1635 77.4057C103.297 66.5763 94.6079 64.3082 89.4967 64.5278C95.0552 50.3442 96.5646 28.1503 96.6245 18.8263C95.5703 25.6306 91.4334 36.1166 89.4967 40.5091C88.738 42.0464 86.5617 45.3008 83.9263 46.0196C81.2908 46.7384 76.8784 45.0812 75.0016 44.1628Z" fill="#7CC8F1"/>
<path d="M80.6127 16.635C71.4925 15.8869 62.0588 17.8099 53.5335 22.7311C31.2396 35.6003 23.5994 64.0993 36.4685 86.3855C49.3377 108.672 77.8429 116.306 100.137 103.437C108.662 98.5153 115.045 91.3084 118.957 83.0374C115.049 93.2073 107.76 102.155 97.5874 108.027C74.0012 121.642 43.8435 113.566 30.2283 89.9877C16.6131 66.4096 24.6962 36.2584 48.2825 22.6432C58.455 16.7711 69.8498 14.9339 80.6127 16.635Z" fill="#7CC8F1"/>
<path d="M96.9239 0.0787354L99.3579 7.56995H107.235L100.862 12.1998L103.296 19.691L96.9239 15.0612L90.5515 19.691L92.9855 12.1998L86.6131 7.56995H94.4899L96.9239 0.0787354Z" fill="#7CC8F1"/>
<circle cx="80.4522" cy="34.5795" r="7.78663" fill="#3C87AF"/>
<path d="M45.8003 35.1079C57.5718 37.3243 71.3233 45.4959 74.582 56.4419C77.8722 67.4937 73.8128 77.3704 68.3235 85.1856C78.5334 78.248 86.443 74.2198 88.4182 75.9684C91.3412 78.5559 88.4382 85.9113 86.6213 89.2655C88.3464 87.9718 94.368 80.7801 97.1632 77.346C103.297 66.5166 94.6076 64.2485 89.4964 64.4681C95.0548 50.2845 96.5643 28.0906 96.6242 18.7666C95.57 25.5709 91.4331 36.0569 89.4964 40.4494C88.7377 41.9867 86.5614 45.2411 83.926 45.9599C81.2905 46.6787 76.8781 45.0215 75.0013 44.1031C63.6967 37.8349 52.7529 35.6237 45.8003 35.1079Z" fill="#3C87AF"/>
<path d="M124.614 68.7209C124.524 91.1733 109.321 111.755 86.3523 117.91C63.383 124.064 39.926 113.841 28.6226 94.4415C38.0406 117.425 63.2985 130.373 87.9238 123.775C112.549 117.176 127.949 93.3344 124.614 68.7209Z" fill="#3C87AF"/>
<path d="M26.72 88.0481L20.6606 90.9904L17.8396 85.1806L23.8989 82.2383L24.5822 83.6454L19.3965 86.1634L19.5658 85.6746L21.3345 89.317L20.8456 89.1477L26.0313 86.6297L26.72 88.0481Z" fill="#7CC8F1"/>
<path d="M22.0393 76.8314L15.4507 78.2324L14.1074 71.9152L20.696 70.5142L21.0214 72.0442L15.3828 73.2432L15.6645 72.8093L16.5067 76.7698L16.0728 76.4881L21.7114 75.2891L22.0393 76.8314Z" fill="#7CC8F1"/>
<path d="M20.145 64.8806L13.4163 64.568L13.4929 62.9173L18.3944 60.4301L18.364 61.0853L13.7206 58.0157L13.7891 56.5414L20.5184 56.8414L20.4523 58.2653L15.412 58.0311L15.5876 57.7867L19.6413 60.5006L19.6097 61.181L15.2078 63.5147L15.1463 63.2088L20.2117 63.4441L20.145 64.8806Z" fill="#7CC8F1"/>
<path d="M22.594 48.6308C22.3932 49.3081 22.0728 49.8709 21.6328 50.3194C21.1872 50.7574 20.6702 51.0514 20.0819 51.2015C19.4935 51.3516 18.8809 51.3322 18.244 51.1434C17.599 50.9521 17.0748 50.6344 16.6714 50.1903C16.26 49.7438 15.9909 49.2166 15.8641 48.6089C15.7397 47.9931 15.7779 47.3466 15.9787 46.6693C16.1652 46.0405 16.4579 45.5264 16.857 45.1273C17.2503 44.7176 17.73 44.4607 18.2959 44.3566L18.6289 45.7184C18.2652 45.8211 17.9689 45.992 17.7401 46.2312C17.5137 46.4623 17.3527 46.739 17.2571 47.0615C17.1471 47.4324 17.1285 47.7909 17.2013 48.137C17.2741 48.4832 17.4386 48.7863 17.6948 49.0465C17.9429 49.3042 18.2765 49.4953 18.6958 49.6196C19.115 49.7439 19.5029 49.7668 19.8595 49.6883C20.208 49.6075 20.5071 49.4418 20.7568 49.1913C21.0066 48.9408 21.1864 48.6301 21.2964 48.2592C21.392 47.9367 21.4079 47.6169 21.344 47.2998C21.2826 46.9745 21.1273 46.6698 20.8783 46.3854L21.8998 45.4252C22.3095 45.8186 22.5756 46.2966 22.6982 46.8593C22.8152 47.4114 22.7804 48.002 22.594 48.6308Z" fill="#7CC8F1"/>
<path d="M22.4895 40.7862L21.3247 40.1827L22.9205 37.1027L24.0853 37.7062L22.4895 40.7862Z" fill="#7CC8F1"/>
<path d="M29.0997 34.8731L23.8542 30.6472L24.8435 29.4193L29.0477 32.8064L31.0657 30.3015L26.8614 26.9145L27.8506 25.6866L33.0961 29.9125L29.0997 34.8731ZM33.9801 31.2079L32.7817 30.2424L33.0407 29.9813L32.1069 31.1404L31.0657 30.3015L32.6959 28.278L34.906 30.0586L33.9801 31.2079Z" fill="#7CC8F1"/>
<path d="M40.1074 23.724C39.5145 24.1807 38.905 24.4644 38.2791 24.575C37.6546 24.6739 37.0601 24.6117 36.4954 24.3885C35.9374 24.1602 35.4557 23.7828 35.0503 23.2565C34.6398 22.7235 34.3946 22.164 34.3148 21.578C34.2365 20.9802 34.314 20.4057 34.5475 19.8543C34.7876 19.2979 35.1742 18.8144 35.7072 18.4039C36.2268 18.0036 36.7771 17.7602 37.3579 17.6737C37.9388 17.5872 38.5049 17.6607 39.0562 17.8941C39.6076 18.1276 40.0988 18.5241 40.5298 19.0838C40.5709 19.1371 40.6137 19.1996 40.6584 19.2713C40.7097 19.338 40.7551 19.4038 40.7946 19.4689L36.3476 22.8942L35.7087 22.0648L39.4962 19.1475L39.2066 19.7845C38.9773 19.4729 38.7061 19.2518 38.3933 19.1213C38.0804 18.9907 37.7561 18.9486 37.4203 18.995C37.0912 19.0362 36.7767 19.1723 36.4769 19.4032C36.1704 19.6393 35.9519 19.9137 35.8214 20.2266C35.6975 20.5343 35.6613 20.8594 35.7128 21.2018C35.7658 21.5325 35.9155 21.8577 36.1618 22.1775L36.3157 22.3774C36.562 22.6972 36.8534 22.9239 37.1898 23.0575C37.5263 23.1911 37.8791 23.2219 38.2482 23.1499C38.6173 23.0779 38.9751 22.9084 39.3215 22.6416C39.6213 22.4107 39.8552 22.1562 40.0232 21.8782C40.1912 21.6002 40.2915 21.2894 40.3241 20.9459L41.5864 21.1997C41.562 21.6642 41.4257 22.1142 41.1773 22.5497C40.9304 22.9734 40.5738 23.3648 40.1074 23.724Z" fill="#7CC8F1"/>
<path d="M46.5124 19.4014L43.7571 13.2548L45.1959 12.6098L46.3156 15.1076L49.4119 13.7196L48.2922 11.2218L49.731 10.5768L52.4864 16.7234L51.0476 17.3684L49.9589 14.9397L46.8625 16.3277L47.9512 18.7564L46.5124 19.4014Z" fill="#7CC8F1"/>
<path d="M59.329 14.8031L58.171 9.14308L58.6052 9.4405L55.9235 9.98916L55.6555 8.6792L61.8346 7.415L62.1026 8.72497L59.4332 9.2711L59.7158 8.82703L60.8738 14.4871L59.329 14.8031Z" fill="#7CC8F1"/>
<path d="M71.3884 13.749C70.8419 13.7381 70.3442 13.602 69.8952 13.3407C69.4546 13.0795 69.1049 12.6941 68.8459 12.1842C68.5955 11.6661 68.4781 11.0161 68.4937 10.2342C68.5095 9.44389 68.6486 8.79901 68.9109 8.29959C69.1816 7.80033 69.5422 7.43324 69.9927 7.19832C70.4433 6.95499 70.9545 6.83903 71.5263 6.85046C72.1905 6.86372 72.7719 7.01833 73.2707 7.31427C73.7779 7.61038 74.1735 8.01781 74.4575 8.53656C74.7499 9.05548 74.8892 9.66386 74.8752 10.3617C74.8613 11.0595 74.6978 11.6661 74.3847 12.1813C74.0801 12.6883 73.6686 13.0796 73.15 13.3552C72.6398 13.631 72.0526 13.7623 71.3884 13.749ZM67.6083 16.0328L67.7917 6.85155L69.2925 6.88153L69.2607 8.47059L69.1745 10.2604L69.2649 12.0538L69.1847 16.0643L67.6083 16.0328ZM71.2388 12.396C71.6172 12.4036 71.9552 12.3262 72.2528 12.164C72.5588 12.0019 72.8033 11.7628 72.9863 11.4469C73.1692 11.1309 73.265 10.7585 73.2735 10.3297C73.2823 9.8925 73.2015 9.5166 73.0311 9.20198C72.8609 8.87896 72.6262 8.63035 72.3269 8.45615C72.036 8.28211 71.7013 8.19132 71.323 8.18376C70.9446 8.1762 70.6024 8.25348 70.2964 8.41558C69.9904 8.57769 69.7459 8.81673 69.5629 9.1327C69.3801 9.44026 69.2844 9.81264 69.2757 10.2498C69.2671 10.6786 69.3479 11.0545 69.5181 11.3776C69.6883 11.7006 69.923 11.9492 70.2223 12.1234C70.5216 12.2976 70.8605 12.3885 71.2388 12.396Z" fill="#7CC8F1"/>
<path d="M33.8199 124.056L33.273 124.144L37.2162 119.249L38.5523 120.325L34.6091 125.221L34.5467 124.642L37.3685 126.915L36.8003 126.986L40.7435 122.09L42.0796 123.166L37.4821 128.874L29.07 122.098L33.6675 116.391L35.0036 117.467L31.0604 122.362L31.0087 121.792L33.8199 124.056Z" fill="#3C87AF"/>
<path d="M29.095 109.042L26.5637 110.915L27.0384 109.976C27.2878 110.177 27.4313 110.422 27.469 110.711C27.5066 110.999 27.4192 111.276 27.2068 111.539C26.9945 111.803 26.7403 111.951 26.4444 111.982C26.1543 112.007 25.888 111.922 25.6458 111.727C25.3892 111.52 25.245 111.269 25.2131 110.973C25.1813 110.677 25.2686 110.401 25.4753 110.144C25.5441 110.059 25.6108 109.983 25.6754 109.918C25.7527 109.851 25.8523 109.778 25.974 109.7C26.0958 109.622 26.2547 109.527 26.4508 109.415L28.2399 108.353L29.095 109.042ZM31.361 110.867L28.8297 112.741L29.3044 111.801C29.5538 112.002 29.6974 112.247 29.735 112.536C29.7726 112.825 29.6852 113.101 29.4729 113.364C29.2605 113.628 29.0064 113.776 28.7104 113.808C28.4203 113.832 28.1541 113.747 27.9118 113.552C27.6552 113.345 27.511 113.094 27.4792 112.798C27.4473 112.502 27.5347 112.226 27.7413 111.97C27.8102 111.884 27.8769 111.809 27.9414 111.743C28.0188 111.676 28.1183 111.604 28.24 111.525C28.3618 111.447 28.5207 111.352 28.7169 111.24L30.5059 110.178L31.361 110.867Z" fill="#3C87AF"/>
<path d="M47.2763 133.929L47.9051 132.587L47.952 132.26L49.0523 129.911C49.2658 129.455 49.294 129.039 49.137 128.662C48.9839 128.277 48.6297 127.955 48.0746 127.695C47.7017 127.52 47.3058 127.405 46.8869 127.351C46.4762 127.3 46.0981 127.32 45.7525 127.41L45.6733 125.994C46.1576 125.887 46.6753 125.882 47.2263 125.979C47.7894 126.071 48.3362 126.241 48.8665 126.489C49.8276 126.94 50.4606 127.519 50.7652 128.228C51.0821 128.932 51.0154 129.764 50.5652 130.726L48.743 134.616L47.2763 133.929ZM45.1475 133.038C44.6503 132.805 44.2541 132.518 43.9589 132.178C43.6675 131.829 43.4881 131.457 43.4207 131.062C43.3654 130.662 43.4271 130.272 43.6056 129.891C43.7803 129.518 44.0245 129.223 44.3382 129.006C44.6602 128.793 45.065 128.695 45.5525 128.711C46.04 128.727 46.6193 128.892 47.2905 129.207L49.217 130.109L48.7338 131.141L46.9192 130.291C46.3889 130.042 45.9918 129.963 45.728 130.051C45.4681 130.132 45.2799 130.296 45.1635 130.545C45.0315 130.826 45.0386 131.102 45.1847 131.373C45.3308 131.643 45.6027 131.872 46.0004 132.058C46.3816 132.237 46.7621 132.309 47.1419 132.274C47.53 132.244 47.8699 132.09 48.1616 131.812L47.9859 132.867C47.6544 133.186 47.2434 133.363 46.7531 133.396C46.271 133.433 45.7358 133.313 45.1475 133.038Z" fill="#3C87AF"/>
<path d="M53.9838 136.469L55.9153 129.399L61.3436 130.882L60.9602 132.285L56.8029 131.15L57.2881 130.884L55.6388 136.921L53.9838 136.469Z" fill="#3C87AF"/>
<path d="M77.4312 139.523L74.7578 136.028L76.1517 135.153L79.4487 139.509L77.4312 139.523ZM72.1747 139.559L72.1235 132.23L73.8391 132.218L73.8903 139.547L72.1747 139.559ZM73.362 136.614L73.352 135.186L75.8362 135.169L75.8461 136.596L73.362 136.614ZM76.3228 136.072L74.7157 135.891L77.3801 132.194L79.2192 132.181L76.3228 136.072Z" fill="#3C87AF"/>
<path d="M92.8541 139.932C92.5119 140.033 92.1529 140.078 91.777 140.065C91.401 140.052 91.0691 139.979 90.7812 139.845L91.0804 138.439C91.2913 138.539 91.515 138.601 91.7516 138.627C91.9881 138.652 92.2161 138.632 92.4354 138.567C92.7337 138.479 92.9528 138.333 93.0929 138.129C93.2329 137.925 93.3299 137.625 93.3838 137.227L93.5188 136.185L93.5919 135.948L94.4095 128.95L95.9887 128.482L94.9488 137.049C94.8855 137.641 94.7633 138.13 94.5823 138.518C94.4101 138.903 94.1755 139.206 93.8786 139.428C93.5904 139.647 93.2489 139.815 92.8541 139.932ZM93.5919 137.108L88.2641 130.771L89.9748 130.264L94.3517 135.566L93.5919 137.108Z" fill="#3C87AF"/>
<path d="M105.393 132.293C104.708 132.641 104.024 132.809 103.34 132.797C102.661 132.773 102.042 132.585 101.483 132.232C100.924 131.88 100.481 131.382 100.153 130.737C99.8214 130.085 99.68 129.433 99.7289 128.782C99.7737 128.123 99.9886 127.516 100.374 126.961C100.767 126.402 101.306 125.948 101.991 125.6C102.627 125.277 103.253 125.123 103.866 125.139C104.484 125.144 105.046 125.33 105.552 125.699L104.726 126.981C104.372 126.771 104.016 126.665 103.656 126.663C103.304 126.657 102.965 126.737 102.638 126.903C102.263 127.094 101.966 127.347 101.747 127.664C101.528 127.98 101.412 128.337 101.398 128.734C101.38 129.123 101.479 129.53 101.695 129.954C101.91 130.378 102.183 130.701 102.511 130.924C102.836 131.139 103.191 131.251 103.576 131.261C103.96 131.271 104.34 131.18 104.715 130.99C105.042 130.824 105.306 130.597 105.509 130.309C105.72 130.017 105.844 129.667 105.882 129.257L107.405 129.345C107.401 129.963 107.223 130.531 106.87 131.049C106.522 131.555 106.029 131.969 105.393 132.293Z" fill="#3C87AF"/>
<path d="M113.493 127.379L108.887 121.678L114.353 117.262L118.959 122.962L117.636 124.032L113.694 119.153L114.253 119.213L110.826 121.982L110.886 121.422L114.828 126.301L113.493 127.379Z" fill="#3C87AF"/>
<path d="M125.676 115.733C125.175 116.374 124.609 116.838 123.979 117.124C123.348 117.397 122.704 117.492 122.049 117.409C121.399 117.319 120.789 117.052 120.22 116.606C119.643 116.156 119.233 115.632 118.991 115.036C118.747 114.427 118.673 113.801 118.771 113.156C118.873 112.505 119.15 111.891 119.601 111.314C120.041 110.752 120.555 110.347 121.144 110.099C121.732 109.851 122.349 109.775 122.993 109.872C123.637 109.969 124.262 110.255 124.868 110.728C124.925 110.773 124.987 110.827 125.054 110.891C125.126 110.947 125.192 111.005 125.251 111.062L121.489 115.874L120.592 115.172L123.795 111.074L123.662 111.824C123.336 111.558 122.991 111.398 122.626 111.345C122.261 111.292 121.908 111.335 121.566 111.475C121.23 111.607 120.936 111.835 120.682 112.16C120.423 112.491 120.267 112.84 120.214 113.205C120.166 113.562 120.216 113.915 120.363 114.262C120.508 114.596 120.754 114.898 121.1 115.169L121.316 115.338C121.662 115.609 122.03 115.769 122.421 115.819C122.812 115.869 123.192 115.806 123.561 115.63C123.931 115.454 124.262 115.179 124.555 114.804C124.809 114.48 124.987 114.149 125.089 113.81C125.191 113.472 125.212 113.117 125.154 112.746L126.553 112.673C126.653 113.169 126.631 113.68 126.486 114.206C126.341 114.719 126.071 115.228 125.676 115.733Z" fill="#3C87AF"/>
<path d="M130.597 108.337L128.15 103.641L128.972 104.054L124.004 105.134L124.809 103.404L128.331 102.666L128.024 103.326L126.326 100.144L127.107 98.4636L129.47 102.984L128.642 102.584L133.805 101.443L132.988 103.198L129.258 103.96L129.646 103.353L131.396 106.62L130.597 108.337Z" fill="#3C87AF"/>
<path d="M131.497 84.2019L128.662 82.8304L129.717 82.801C129.655 83.1152 129.504 83.3605 129.264 83.5369C129.026 83.7044 128.74 83.7553 128.408 83.6897C128.076 83.6241 127.832 83.4685 127.675 83.223C127.511 82.9668 127.459 82.6861 127.52 82.3809C127.582 82.0667 127.736 81.8268 127.984 81.6611C128.231 81.4955 128.516 81.4445 128.839 81.5084C128.938 81.5279 129.039 81.5573 129.144 81.5965C129.241 81.625 129.352 81.675 129.478 81.7464C129.596 81.8072 129.75 81.9028 129.939 82.0334L131.712 83.1112L131.497 84.2019ZM132.061 81.3474L129.226 79.9759L130.281 79.9465C130.219 80.2607 130.068 80.506 129.828 80.6824C129.59 80.8498 129.304 80.9008 128.972 80.8352C128.64 80.7695 128.396 80.614 128.239 80.3685C128.075 80.1123 128.023 79.8316 128.084 79.5264C128.146 79.2122 128.3 78.9723 128.548 78.8066C128.795 78.6409 129.08 78.59 129.403 78.6539C129.502 78.6734 129.603 78.7027 129.707 78.742C129.804 78.7705 129.916 78.8204 130.042 78.8919C130.16 78.9527 130.314 79.0483 130.503 79.1788L132.276 80.2567L132.061 81.3474Z" fill="#3C87AF"/>
<path d="M138.139 95.9014C138.07 96.2515 137.943 96.5901 137.757 96.9171C137.571 97.2441 137.352 97.504 137.099 97.6966L135.993 96.7786C136.18 96.6382 136.339 96.4691 136.471 96.2714C136.604 96.0737 136.692 95.8627 136.736 95.6383C136.797 95.3331 136.769 95.0711 136.654 94.8525C136.538 94.6338 136.317 94.4083 135.99 94.1757L135.13 93.5721L134.954 93.3976L129.136 89.4222L129.456 87.8065L136.56 92.7074C137.054 93.0382 137.431 93.3738 137.69 93.7141C137.951 94.0455 138.111 94.3942 138.169 94.7601C138.229 95.117 138.219 95.4975 138.139 95.9014ZM135.981 93.9362L127.894 95.7102L128.24 93.9598L134.969 92.547L135.981 93.9362Z" fill="#3C87AF"/>
</svg>
