<svg width="10" height="9" viewBox="0 0 10 9" fill="none" xmlns="http://www.w3.org/2000/svg">
<path d="M9.41614 1.17702C9.41614 0.864853 9.29213 0.565474 9.0714 0.34474C8.85066 0.124007 8.55128 0 8.23912 0L1.17702 0C0.864853 0 0.565474 0.124007 0.34474 0.34474C0.124007 0.565474 0 0.864853 0 1.17702L0 5.88509C0 6.19725 0.124007 6.49663 0.34474 6.71736C0.565474 6.9381 0.864853 7.0621 1.17702 7.0621H6.81846C6.97453 7.06214 7.1242 7.12416 7.23454 7.23454L8.91355 8.91355C8.95467 8.95477 9.00709 8.98287 9.06419 8.99429C9.12128 9.0057 9.18048 8.99993 9.23429 8.97768C9.2881 8.95544 9.3341 8.91774 9.36647 8.86934C9.39884 8.82094 9.41613 8.76403 9.41614 8.70581V1.17702ZM2.05978 1.76553H7.35636C7.4344 1.76553 7.50924 1.79653 7.56443 1.85171C7.61961 1.90689 7.65061 1.98174 7.65061 2.05978C7.65061 2.13782 7.61961 2.21267 7.56443 2.26785C7.50924 2.32303 7.4344 2.35403 7.35636 2.35403H2.05978C1.98174 2.35403 1.90689 2.32303 1.85171 2.26785C1.79653 2.21267 1.76553 2.13782 1.76553 2.05978C1.76553 1.98174 1.79653 1.90689 1.85171 1.85171C1.90689 1.79653 1.98174 1.76553 2.05978 1.76553ZM2.05978 3.2368H7.35636C7.4344 3.2368 7.50924 3.2678 7.56443 3.32298C7.61961 3.37817 7.65061 3.45301 7.65061 3.53105C7.65061 3.60909 7.61961 3.68394 7.56443 3.73912C7.50924 3.7943 7.4344 3.82531 7.35636 3.82531H2.05978C1.98174 3.82531 1.90689 3.7943 1.85171 3.73912C1.79653 3.68394 1.76553 3.60909 1.76553 3.53105C1.76553 3.45301 1.79653 3.37817 1.85171 3.32298C1.90689 3.2678 1.98174 3.2368 2.05978 3.2368ZM2.05978 4.70807H5.00232C5.08036 4.70807 5.15521 4.73907 5.21039 4.79425C5.26558 4.84944 5.29658 4.92428 5.29658 5.00232C5.29658 5.08036 5.26558 5.15521 5.21039 5.21039C5.15521 5.26558 5.08036 5.29658 5.00232 5.29658H2.05978C1.98174 5.29658 1.90689 5.26558 1.85171 5.21039C1.79653 5.15521 1.76553 5.08036 1.76553 5.00232C1.76553 4.92428 1.79653 4.84944 1.85171 4.79425C1.90689 4.73907 1.98174 4.70807 2.05978 4.70807Z" fill="black"/>
</svg>
