<svg width="9" height="9" viewBox="0 0 9 9" fill="none" xmlns="http://www.w3.org/2000/svg">
<path d="M9 4.77701H4.62103L1.52456 7.87347C2.15667 8.43114 2.93258 8.80023 3.76406 8.93876C4.59554 9.07729 5.44921 8.9797 6.22797 8.6571C7.00674 8.3345 7.67934 7.79982 8.16929 7.11389C8.65923 6.42796 8.94742 5.6183 9 4.77701ZM1.12653 7.47487C0.56886 6.84277 0.199772 6.06685 0.061241 5.23537C-0.0772902 4.4039 0.0202954 3.55023 0.342899 2.77146C0.665502 1.9927 1.20018 1.32009 1.88611 0.830149C2.57204 0.340204 3.3817 0.0525835 4.22299 0V4.37897L1.12653 7.47487ZM4.78599 0V4.21401H9C8.9315 3.11883 8.46553 2.08632 7.68961 1.31039C6.91368 0.534467 5.88117 0.0685002 4.78599 0Z" fill="black"/>
</svg>
