<svg width="21" height="21" viewBox="0 0 21 21" fill="none" xmlns="http://www.w3.org/2000/svg">
<path fill-rule="evenodd" clip-rule="evenodd" d="M2.68079 16.3084C2.68079 16.1363 2.74916 15.9713 2.87086 15.8496C2.99255 15.7279 3.15761 15.6595 3.32972 15.6595H12.4148C12.5869 15.6595 12.752 15.7279 12.8737 15.8496C12.9954 15.9713 13.0638 16.1363 13.0638 16.3084C13.0638 16.4805 12.9954 16.6456 12.8737 16.7673C12.752 16.889 12.5869 16.9574 12.4148 16.9574H3.32972C3.15761 16.9574 2.99255 16.889 2.87086 16.7673C2.74916 16.6456 2.68079 16.4805 2.68079 16.3084ZM2.68079 12.4148C2.68079 12.2427 2.74916 12.0776 2.87086 11.9559C2.99255 11.8342 3.15761 11.7659 3.32972 11.7659H17.6063C17.7784 11.7659 17.9435 11.8342 18.0652 11.9559C18.1869 12.0776 18.2553 12.2427 18.2553 12.4148C18.2553 12.5869 18.1869 12.752 18.0652 12.8737C17.9435 12.9954 17.7784 13.0637 17.6063 13.0637H3.32972C3.15761 13.0637 2.99255 12.9954 2.87086 12.8737C2.74916 12.752 2.68079 12.5869 2.68079 12.4148ZM2.68079 8.52119C2.68079 8.34908 2.74916 8.18402 2.87086 8.06232C2.99255 7.94062 3.15761 7.87225 3.32972 7.87225H12.4148C12.5869 7.87225 12.752 7.94062 12.8737 8.06232C12.9954 8.18402 13.0638 8.34908 13.0638 8.52119C13.0638 8.6933 12.9954 8.85836 12.8737 8.98006C12.752 9.10176 12.5869 9.17013 12.4148 9.17013H3.32972C3.15761 9.17013 2.99255 9.10176 2.87086 8.98006C2.74916 8.85836 2.68079 8.6933 2.68079 8.52119ZM2.68079 4.62757C2.68079 4.45547 2.74916 4.29041 2.87086 4.16871C2.99255 4.04701 3.15761 3.97864 3.32972 3.97864H17.6063C17.7784 3.97864 17.9435 4.04701 18.0652 4.16871C18.1869 4.29041 18.2553 4.45547 18.2553 4.62757C18.2553 4.79968 18.1869 4.96474 18.0652 5.08644C17.9435 5.20814 17.7784 5.27651 17.6063 5.27651H3.32972C3.15761 5.27651 2.99255 5.20814 2.87086 5.08644C2.74916 4.96474 2.68079 4.79968 2.68079 4.62757Z" fill="white"/>
</svg>
