<svg width="21" height="21" viewBox="0 0 21 21" fill="none" xmlns="http://www.w3.org/2000/svg">
<path d="M10.6556 16.9574C13.3889 16.9574 15.0839 15.5466 15.0839 13.2935C15.0839 11.5984 13.8068 10.3304 12.0677 10.1967V10.1254C12.7337 10.0251 13.342 9.69008 13.7827 9.18078C14.2235 8.67149 14.4677 8.02144 14.4713 7.34792C14.4713 5.38813 12.9632 4.15515 10.5596 4.15515H4.98779V16.9574H10.6556ZM7.6679 6.15128H9.86909C11.1189 6.15128 11.838 6.73662 11.838 7.76583C11.838 8.84826 11.0216 9.47902 9.59264 9.47902H7.6679V6.15128ZM7.6679 14.9612V11.2441H9.91322C11.4927 11.2441 12.3532 11.8827 12.3532 13.0806C12.3532 14.3045 11.5187 14.9612 9.97552 14.9612H7.6679Z" fill="white"/>
</svg>
